<svg width="1056" height="1056" viewBox="0 0 1056 1056" fill="none" xmlns="http://www.w3.org/2000/svg">
    <circle cx="528" cy="528" r="500" fill="#070707" stroke="white" stroke-width="55.814"/>
    <path d="M245.674 383.419C232.651 397.682 226.14 415.822 226.14 437.837C226.14 459.543 231.721 472.566 242.884 476.907C245.674 477.837 247.07 479.853 247.07 482.953C247.07 492.256 243.969 500.163 237.767 506.674C231.566 512.876 223.969 516.597 214.977 517.837C212.186 517.837 210.791 518.922 210.791 521.093C210.481 524.504 210.326 529.465 210.326 535.977C210.326 542.178 210.636 549.155 211.256 556.907C211.876 564.349 213.271 573.341 215.442 583.884C217.922 594.116 221.023 603.109 224.744 610.86C228.775 618.302 234.357 624.814 241.488 630.395C248.93 635.667 257.457 638.302 267.07 638.302C276.682 638.302 285.519 635.512 293.581 629.93C286.45 613.806 279.008 602.333 271.256 595.512L267.535 592.256C266.605 591.015 266.14 589.775 266.14 588.535C266.14 585.124 269.24 583.419 275.442 583.419C288.155 583.419 301.178 590.085 314.512 603.419C326.295 579.233 332.186 547.76 332.186 509C332.186 446.364 321.798 404.814 301.023 384.349C292.031 375.667 282.419 371.326 272.186 371.326C261.953 371.326 253.116 375.357 245.674 383.419ZM189.86 412.721L191.721 409.93C194.822 395.667 199.783 383.419 206.605 373.186C213.736 362.643 220.713 354.891 227.535 349.93C234.667 344.659 242.574 340.628 251.256 337.837C262.729 334.116 272.806 332.256 281.488 332.256C302.264 332.256 320.093 337.062 334.977 346.674C350.171 356.287 361.643 369.31 369.395 385.744C383.659 417.062 390.791 452.566 390.791 492.256C390.791 558.922 374.977 608.07 343.349 639.698C357.922 655.822 372.186 663.884 386.14 663.884C390.171 663.884 392.186 665.279 392.186 668.07C392.186 673.031 386.45 678.302 374.977 683.884C363.504 689.775 351.256 692.721 338.233 692.721L323.349 691.326C319.318 690.705 316.062 689.155 313.581 686.674C311.101 684.504 309.55 681.403 308.93 677.372L305.674 664.349C291.101 670.24 276.217 673.186 261.023 673.186C222.264 673.186 193.736 660.008 175.442 633.651C157.147 606.984 148 573.341 148 532.721C148 509.155 150.015 487.605 154.047 468.07C158.078 448.225 162.264 434.271 166.605 426.209L172.651 414.116C173.891 411.326 175.907 409.93 178.698 409.93C181.488 409.93 183.504 410.24 184.744 410.86C186.295 411.171 187.38 411.636 188 412.256C188.93 412.566 189.55 412.721 189.86 412.721ZM556.15 601.558C556.15 614.891 553.515 626.519 548.243 636.442C543.282 646.364 537.546 653.651 531.034 658.302C524.523 662.953 516.771 666.674 507.778 669.465C495.995 673.186 485.298 675.046 475.685 675.046C455.53 675.046 438.786 671.171 425.453 663.419C412.119 655.357 405.453 642.643 405.453 625.279C405.453 615.046 408.243 606.674 413.825 600.163C422.507 590.55 432.895 585.744 444.988 585.744C448.709 585.744 450.569 587.45 450.569 590.86C450.569 591.171 449.794 593.651 448.243 598.302C447.003 602.643 446.383 608.225 446.383 615.046C446.383 621.868 449.019 627.915 454.29 633.186C459.871 638.457 466.538 641.093 474.29 641.093C482.042 641.093 488.243 639.853 492.895 637.372C497.546 634.581 500.802 631.171 502.662 627.14C505.453 621.558 506.848 616.287 506.848 611.326C506.848 602.333 502.352 594.581 493.36 588.07C484.367 581.558 474.445 576.442 463.592 572.721C452.74 569 442.817 562.798 433.825 554.116C424.833 545.434 420.336 534.581 420.336 521.558C420.336 499.233 427.313 482.488 441.267 471.326C455.53 460.163 474.755 454.581 498.941 454.581C509.484 454.581 520.491 456.132 531.964 459.233C543.747 462.023 549.639 466.984 549.639 474.116C549.639 480.938 548.398 487.295 545.918 493.186C543.747 499.078 540.957 502.023 537.546 502.023C535.685 502.023 534.445 501.403 533.825 500.163C533.205 498.612 532.119 496.907 530.569 495.046C529.019 493.186 525.298 490.86 519.406 488.07C513.515 484.969 508.398 483.419 504.057 483.419C500.026 483.419 497.236 483.574 495.685 483.884C494.445 483.884 492.119 484.349 488.709 485.279C485.298 485.899 482.197 486.984 479.406 488.535C472.274 492.566 468.709 498.457 468.709 506.209C468.709 511.171 469.794 514.891 471.964 517.372C474.135 519.543 475.84 521.248 477.081 522.488C478.321 523.729 480.492 525.279 483.592 527.14C486.693 528.69 488.864 529.775 490.104 530.395C491.344 531.015 494.135 532.411 498.476 534.581C502.817 536.442 505.608 537.682 506.848 538.302C539.716 553.806 556.15 574.891 556.15 601.558ZM620.22 489.93C612.158 490.24 606.267 490.55 602.546 490.86C599.135 490.86 597.429 489.93 597.429 488.07C597.429 486.209 598.36 484.349 600.22 482.488C620.065 464.194 653.553 455.046 700.685 455.046C716.809 455.046 729.522 456.442 738.825 459.233L743.476 460.628C747.197 462.178 749.057 463.884 749.057 465.744C749.057 467.295 747.972 468.535 745.802 469.465C737.429 471.946 729.367 475.977 721.616 481.558C713.864 486.829 709.988 490.55 709.988 492.721L712.778 495.977C722.701 501.558 730.298 510.395 735.569 522.488C741.15 534.581 744.251 545.279 744.871 554.581L745.802 569C745.802 599.698 737.274 624.969 720.22 644.814C703.166 664.659 679.91 674.581 650.453 674.581C635.569 674.581 622.701 671.946 611.848 666.674C600.995 661.403 592.933 655.512 587.662 649C582.701 642.178 578.67 634.581 575.569 626.209C571.848 614.736 569.988 602.953 569.988 590.86C569.988 578.457 572.003 566.054 576.034 553.651C580.375 541.248 585.181 532.101 590.453 526.209C596.034 520.318 602.236 515.512 609.057 511.791C617.74 507.14 624.716 504.814 629.988 504.814C635.259 504.814 637.895 505.899 637.895 508.07L635.104 512.721C628.282 520.783 623.321 531.326 620.22 544.349C617.429 557.372 616.034 569 616.034 579.233C616.034 589.155 617.274 599.077 619.755 609C622.236 618.922 625.026 626.364 628.127 631.326C631.228 635.977 634.794 639.543 638.825 642.023C644.716 645.744 650.918 647.605 657.429 647.605C663.941 647.605 670.298 645.124 676.499 640.163C682.701 634.891 687.197 628.07 689.988 619.698C695.569 604.194 698.36 588.225 698.36 571.791C698.36 545.744 691.693 525.589 678.36 511.326C665.336 497.062 645.957 489.93 620.22 489.93ZM907.27 540.628L909.13 556.907C909.13 562.798 903.549 565.744 892.386 565.744C869.75 565.744 858.432 557.217 858.432 540.163C858.432 536.132 859.518 530.55 861.688 523.419C863.859 516.287 864.944 510.085 864.944 504.814C864.944 499.543 863.394 495.046 860.293 491.326C857.192 487.295 852.696 485.279 846.804 485.279C840.913 485.279 835.797 487.45 831.456 491.791C827.425 495.822 824.944 500.008 824.014 504.349L822.153 510.86C820.293 520.473 819.363 536.597 819.363 559.233C819.363 581.558 819.673 599.233 820.293 612.256C820.913 624.969 821.533 633.806 822.153 638.767C822.773 643.419 823.084 646.209 823.084 647.14C823.084 654.891 818.277 661.093 808.665 665.744C799.053 670.705 789.44 673.186 779.828 673.186C770.215 673.186 765.409 671.171 765.409 667.14L767.735 652.721C772.076 625.744 774.246 590.55 774.246 547.14C774.246 503.729 772.696 474.271 769.595 458.767C769.595 455.046 772.851 453.186 779.363 453.186C796.107 453.186 807.27 458.922 812.851 470.395C813.161 471.636 813.626 472.256 814.246 472.256C815.177 472.256 817.347 470.86 820.758 468.07C830.991 459.698 843.084 455.512 857.037 455.512C865.719 455.512 874.401 457.217 883.084 460.628C900.758 467.76 909.595 482.643 909.595 505.279L907.27 540.628Z" fill="white"/>
</svg>

